<svg xmlns="http://www.w3.org/2000/svg" width="30" height="30" viewBox="0 0 30 30">
  <g id="Mail_Sign_Up_Icon" data-name="Mail Sign Up Icon" transform="translate(-3813 354)">
    <circle id="Ellipse_12" data-name="Ellipse 12" cx="15" cy="15" r="15" transform="translate(3813 -354)" fill="#3e3e3e"/>
    <path id="envelope-solid" d="M16.668,68.208a.2.2,0,0,1,.322.156V75.15A1.593,1.593,0,0,1,15.4,76.742H1.593A1.593,1.593,0,0,1,0,75.15V68.367a.2.2,0,0,1,.322-.156c.743.577,1.729,1.311,5.114,3.77.7.511,1.882,1.586,3.06,1.58,1.185.01,2.389-1.088,3.063-1.58C14.943,69.522,15.925,68.785,16.668,68.208ZM8.495,72.495c.77.013,1.878-.969,2.436-1.374,4.4-3.2,4.739-3.474,5.754-4.271a.794.794,0,0,0,.305-.627v-.63A1.593,1.593,0,0,0,15.4,64H1.593A1.593,1.593,0,0,0,0,65.593v.63a.8.8,0,0,0,.305.627c1.015.793,1.351,1.075,5.754,4.271.557.4,1.666,1.387,2.436,1.374Z" transform="translate(3819.731 -409.702)" fill="#fff"/>
  </g>
</svg>
