<svg xmlns="http://www.w3.org/2000/svg" width="120.968" height="120.969" viewBox="0 0 120.968 120.969">
  <path id="pencil-alt-solid" d="M117.661,33.632,106.768,44.525a2.838,2.838,0,0,1-4.017,0L76.525,18.3a2.838,2.838,0,0,1,0-4.017L87.417,3.389a11.366,11.366,0,0,1,16.043,0l14.2,14.2A11.323,11.323,0,0,1,117.661,33.632ZM67.168,23.638,5.122,85.684.113,114.392a5.678,5.678,0,0,0,6.569,6.569l28.708-5.033L97.435,53.881a2.838,2.838,0,0,0,0-4.017L71.209,23.638a2.866,2.866,0,0,0-4.04,0ZM29.34,80.368a3.294,3.294,0,0,1,0-4.678L65.727,39.3a3.308,3.308,0,0,1,4.678,4.678L34.018,80.368a3.294,3.294,0,0,1-4.678,0Zm-8.53,19.871H32.152v8.577l-15.24,2.67-7.348-7.348,2.67-15.24h8.577Z" transform="translate(-0.024 -0.075)"/>
</svg>
