<svg xmlns="http://www.w3.org/2000/svg" width="30.898" height="30.898" viewBox="0 0 30.898 30.898">
  <g id="Group_12" data-name="Group 12" transform="translate(30.898 30.898) rotate(-180)">
    <g id="Group_10" data-name="Group 10">
      <g id="Group_7" data-name="Group 7">
        <path id="Path_15" data-name="Path 15" d="M15.449,30.9A15.449,15.449,0,1,1,30.9,15.449,15.447,15.447,0,0,1,15.449,30.9Zm0-29.917A14.468,14.468,0,1,0,29.917,15.449,14.463,14.463,0,0,0,15.449.981Z"/>
      </g>
      <g id="Group_8" data-name="Group 8" transform="translate(13.291 8.485)">
        <path id="Path_16" data-name="Path 16" d="M.687,13.929,0,13.193,6.229,6.964,0,.736.687,0,7.6,6.964Z"/>
      </g>
      <g id="Group_9" data-name="Group 9" transform="translate(10.348 8.485)">
        <path id="Path_17" data-name="Path 17" d="M.687,13.929,0,13.193,6.229,6.964,0,.736.687,0,7.6,6.964Z"/>
      </g>
    </g>
  </g>
</svg>
