<svg xmlns="http://www.w3.org/2000/svg" width="30" height="30" viewBox="0 0 30 30">
  <g id="Twitter_Icon" data-name="Twitter Icon" transform="translate(-910 -9)">
    <circle id="Ellipse_10" data-name="Ellipse 10" cx="15" cy="15" r="15" transform="translate(910 9)" fill="#3e3e3e"/>
    <path id="twitter-brands" d="M17.228,51.969c.012.171.012.341.012.512a11.12,11.12,0,0,1-11.2,11.2A11.121,11.121,0,0,1,0,61.91a8.141,8.141,0,0,0,.95.049,7.881,7.881,0,0,0,4.886-1.681,3.942,3.942,0,0,1-3.679-2.729,4.963,4.963,0,0,0,.743.061,4.162,4.162,0,0,0,1.036-.134A3.936,3.936,0,0,1,.78,53.613v-.049a3.963,3.963,0,0,0,1.779.5A3.941,3.941,0,0,1,1.34,48.8a11.186,11.186,0,0,0,8.114,4.118,4.442,4.442,0,0,1-.1-.9,3.939,3.939,0,0,1,6.811-2.693,7.748,7.748,0,0,0,2.5-.95,3.925,3.925,0,0,1-1.73,2.169,7.889,7.889,0,0,0,2.266-.609A8.459,8.459,0,0,1,17.228,51.969Z" transform="translate(916.4 -30.762)" fill="#fff"/>
  </g>
</svg>
